<?xml version="1.0" encoding="UTF-8"?>
<svg version="1.1" xmlns="http://www.w3.org/2000/svg" width="120" height="120">
<path d="M0 0 C5.2312898 3.72282094 7.64332017 7.36895766 10.3046875 13.14453125 C10.67353058 13.91431808 11.04237366 14.68410492 11.4223938 15.47721863 C12.58710192 17.91601494 13.73123922 20.36382091 14.875 22.8125 C15.66532273 24.47655041 16.45697642 26.13996939 17.25 27.80273438 C19.18213733 31.86134847 21.0958968 35.92816318 23 40 C23.50861572 38.90010742 24.01723145 37.80021484 24.54125977 36.66699219 C26.441737 32.57179111 28.3696403 28.49000598 30.3059082 24.41162109 C31.13859451 22.64788569 31.96389608 20.88064347 32.78149414 19.10986328 C33.96115901 16.55834499 35.16720605 14.02080707 36.37890625 11.484375 C36.73650528 10.69569031 37.09410431 9.90700562 37.46253967 9.09442139 C40.09289671 3.68184056 42.47537454 1.44955269 48 -1 C51.89912071 -1.55523479 55.48101051 -0.91329639 58.87109375 1.125 C61.71235934 3.41436508 63.73708129 5.27927359 64.29760742 8.94775391 C64.69507942 16.88590654 61.91782645 22.44301474 58.3125 29.375 C57.42450818 31.14482387 56.53658303 32.91468439 55.65231323 34.68637085 C55.03965547 35.91248413 54.42465862 37.13743124 53.80740356 38.36123657 C49.78879248 46.34627917 46.11489831 54.49156474 42.40356445 62.62255859 C34.2362941 80.37635983 34.2362941 80.37635983 30 84 C25.15840419 85.61386527 20.79178187 85.83616487 16.1875 83.6875 C12.32224901 80.70573495 10.41563304 78.15700433 8.390625 73.671875 C7.63990723 72.02819946 7.63990723 72.02819946 6.87402344 70.35131836 C6.3380957 69.1628833 5.80216797 67.97444824 5.25 66.75 C4.09819309 64.22321624 2.9404094 61.6991994 1.78125 59.17578125 C1.4796698 58.51828384 1.1780896 57.86078644 0.86737061 57.18336487 C-3.35569215 48.00898946 -7.80541511 38.94293311 -12.23730469 29.86816406 C-12.54825073 29.2298616 -12.85919678 28.59155914 -13.17956543 27.93391418 C-14.02326956 26.20242093 -14.86945889 24.47213927 -15.71582031 22.74194336 C-18.18871472 17.46189069 -18.79875809 12.77080286 -18 7 C-16.32918647 3.59597742 -13.90532227 1.5627679 -10.6875 -0.4375 C-6.98268285 -1.21292685 -3.55497263 -1.27927587 0 0 Z " fill="#628FF1" transform="translate(37,18)"/>
<path d="M0 0 C3.00119501 1.80447633 5.4065269 3.81305379 7 7 C8.37721903 15.75849407 5.08329191 22.13291209 1.125 29.75 C0.23476594 31.52543993 -0.65543543 33.30089936 -1.54200745 35.07817078 C-2.14192438 36.27929725 -2.74417318 37.47926186 -3.34873962 38.67805481 C-6.33414164 44.60809164 -9.09238345 50.63230149 -11.8125 56.6875 C-12.23837402 57.63141602 -12.66424805 58.57533203 -13.10302734 59.54785156 C-14.07153861 61.69730604 -15.03738385 63.84790071 -16 66 C-16.99 66 -17.98 66 -19 66 C-19.33 67.32 -19.66 68.64 -20 70 C-20.66 70 -21.32 70 -22 70 C-22.32274902 69.29391602 -22.64549805 68.58783203 -22.97802734 67.86035156 C-24.44295985 64.65656894 -25.9089681 61.45327969 -27.375 58.25 C-27.88289063 57.13882813 -28.39078125 56.02765625 -28.9140625 54.8828125 C-29.40390625 53.81289062 -29.89375 52.74296875 -30.3984375 51.640625 C-30.84880371 50.65610352 -31.29916992 49.67158203 -31.76318359 48.65722656 C-32.80578299 46.41726371 -33.88057124 44.20230475 -35 42 C-34.34 42 -33.68 42 -33 42 C-32.90412598 41.16807129 -32.80825195 40.33614258 -32.70947266 39.47900391 C-31.89103621 35.46567999 -30.39655277 32.00867539 -28.6484375 28.3359375 C-28.31131744 27.6214444 -27.97419739 26.90695129 -27.62686157 26.17080688 C-26.91319788 24.66783924 -26.19520777 23.16691914 -25.47314453 21.66796875 C-24.37937977 19.38414514 -23.31657145 17.08748784 -22.25390625 14.7890625 C-21.55394643 13.32462887 -20.85218202 11.86105613 -20.1484375 10.3984375 C-19.83772308 9.71607025 -19.52700867 9.033703 -19.20687866 8.33065796 C-15.29633606 0.41241565 -8.54839246 -2.730521 0 0 Z " fill="#93B1F1" transform="translate(94,18)"/>
<path d="M0 0 C2.39674146 2.16983858 3.71125336 4.13738573 5.0078125 7.08984375 C5.35457031 7.87423828 5.70132813 8.65863281 6.05859375 9.46679688 C6.41050781 10.28212891 6.76242188 11.09746094 7.125 11.9375 C7.48464844 12.74896484 7.84429687 13.56042969 8.21484375 14.39648438 C9.7548118 17.9118796 11.15428047 21.24599774 12 25 C12.66 24.67 13.32 24.34 14 24 C14.33 23.01 14.66 22.02 15 21 C15.66 21 16.32 21 17 21 C15.18911739 27.42040198 12.20623904 34.59267232 7 39 C2.15840419 40.61386527 -2.20821813 40.83616487 -6.8125 38.6875 C-11.05149546 35.41741779 -12.47867911 33.26611077 -14 28 C-13.34 28 -12.68 28 -12 28 C-11.91492187 27.02417969 -11.82984375 26.04835938 -11.7421875 25.04296875 C-11.07497616 20.39238865 -9.17657469 16.50021249 -7.125 12.3125 C-6.77308594 11.56677734 -6.42117187 10.82105469 -6.05859375 10.05273438 C-4.31972053 6.42954314 -2.60078026 3.09967207 0 0 Z " fill="#336FF1" transform="translate(60,63)"/>
<path d="M0 0 C-1.04271974 2.2458579 -2.08649367 4.10978043 -3.625 6.0625 C-5.2893735 8.0117832 -5.2893735 8.0117832 -5 11 C-5 13.66666667 -5 16.33333333 -5 19 C-7.82838679 14.75741982 -7.78009 10.9817629 -7 6 C-5.43930481 3.046863 -3.63047415 0 0 0 Z " fill="#2D58B1" transform="translate(26,19)"/>
</svg>
